<svg xmlns="http://www.w3.org/2000/svg" viewBox="0 0 1200 600">
  <defs>
    <linearGradient id="bg-gradient" x1="0%" y1="0%" x2="100%" y2="100%">
      <stop offset="0%" stop-color="#f5f5f5" />
      <stop offset="100%" stop-color="#e3f2fd" />
    </linearGradient>
    <filter id="shadow">
      <feDropShadow dx="0" dy="4" stdDeviation="8" flood-opacity="0.2"/>
    </filter>
  </defs>
  
  <!-- Background -->
  <rect width="1200" height="600" fill="url(#bg-gradient)" />
  
  <!-- Abstract Shapes -->
  <circle cx="200" cy="300" r="150" fill="#1976d2" opacity="0.1" />
  <circle cx="1000" cy="200" r="100" fill="#2196f3" opacity="0.1" />
  <circle cx="800" cy="400" r="120" fill="#64b5f6" opacity="0.1" />
  
  <!-- Credit Card Icon -->
  <g transform="translate(600,300)" filter="url(#shadow)">
    <rect x="-100" y="-60" width="200" height="120" rx="10" fill="white" />
    <rect x="-90" y="-50" width="180" height="100" rx="8" fill="#1976d2" />
    <rect x="-80" y="-30" width="160" height="20" rx="4" fill="white" opacity="0.8" />
    <rect x="-80" y="0" width="100" height="20" rx="4" fill="white" opacity="0.6" />
    <rect x="-80" y="30" width="140" height="20" rx="4" fill="white" opacity="0.4" />
  </g>
  
  <!-- Shield Icon -->
  <g transform="translate(400,300)" filter="url(#shadow)">
    <path d="M0,-80 L60,-40 L60,40 L0,80 L-60,40 L-60,-40 Z" fill="white" />
    <path d="M0,-60 L40,-30 L40,30 L0,60 L-40,30 L-40,-30 Z" fill="#2196f3" />
    <path d="M0,-20 L20,0 L0,20 L-20,0 Z" fill="white" />
  </g>
  
  <!-- AI Circuit Pattern -->
  <g transform="translate(800,300)" opacity="0.1">
    <path d="M-100,-100 L100,-100 L100,100 L-100,100 Z" stroke="#1976d2" stroke-width="2" fill="none" />
    <circle cx="-50" cy="-50" r="5" fill="#1976d2" />
    <circle cx="50" cy="50" r="5" fill="#1976d2" />
    <path d="M-50,-50 L50,50" stroke="#1976d2" stroke-width="2" />
    <path d="M-50,50 L50,-50" stroke="#1976d2" stroke-width="2" />
  </g>
</svg> 